<?xml version="1.0" encoding="utf-8"?>
<!-- Generator: Adobe Illustrator 21.0.2, SVG Export Plug-In . SVG Version: 6.00 Build 0)  -->
<svg version="1.1" id="Layer_1" xmlns="http://www.w3.org/2000/svg" xmlns:xlink="http://www.w3.org/1999/xlink" x="0px" y="0px"
	 viewBox="0 0 500 360" style="enable-background:new 0 0 500 360;" xml:space="preserve">
<style type="text/css">
	.st0{display:none;fill:#92E8FC;}
	.st1{fill:#494D5D;}
	.st2{fill:#8BC8D8;}
	.st3{opacity:0.5;fill:#FFFFFF;}
	.st4{opacity:0.5;fill:#60A6BF;}
	.st5{fill:#80B8D1;}
	.st6{fill:#F7F7F7;}
	.st7{opacity:0.4;}
</style>
<rect class="st0" width="500" height="360"/>
<g id="c_x5F_screen">
	<rect id="c_x5F_border" x="163.8" y="120.8" class="st1" width="172.2" height="109"/>
	<rect id="c_x5F_bg" x="167.3" y="125" class="st2" width="165.3" height="100.7"/>
	<path id="c_x5F_cont1" class="st3" d="M326.3,145h-151c-1.5,0-2.8-1.2-2.8-2.8v-8c0-1.5,1.2-2.8,2.8-2.8h151c1.5,0,2.8,1.2,2.8,2.8
		v8C329,143.8,327.8,145,326.3,145z"/>
	<path id="c_x5F_cont2" class="st4" d="M326.3,186h-151c-1.5,0-2.8-1.2-2.8-2.8v-32c0-1.5,1.2-2.8,2.8-2.8h151
		c1.5,0,2.8,1.2,2.8,2.8v32C329,184.8,327.8,186,326.3,186z"/>
	<path id="c_x5F_cont3" class="st4" d="M226.8,223.7h-51.5c-1.5,0-2.8-1.2-2.8-2.8v-28.5c0-1.5,1.2-2.8,2.8-2.8h51.5
		c1.5,0,2.8,1.2,2.8,2.8v28.5C229.5,222.4,228.3,223.7,226.8,223.7z"/>
	<path id="c_x5F_cont4" class="st3" d="M323.5,196.7h-86.8c-1.5,0-2.8-1.2-2.8-2.8v0c0-1.5,1.2-2.8,2.8-2.8h86.8
		c1.5,0,2.8,1.2,2.8,2.8v0C326.3,195.5,325,196.7,323.5,196.7z"/>
	<path id="c_x5F_cont4_1_" class="st3" d="M323.5,209.4h-86.8c-1.5,0-2.8-1.2-2.8-2.8v0c0-1.5,1.2-2.8,2.8-2.8h86.8
		c1.5,0,2.8,1.2,2.8,2.8v0C326.3,208.2,325,209.4,323.5,209.4z"/>
	<path id="c_x5F_cont4_2_" class="st3" d="M323.5,222.1h-86.8c-1.5,0-2.8-1.2-2.8-2.8l0,0c0-1.5,1.2-2.8,2.8-2.8h86.8
		c1.5,0,2.8,1.2,2.8,2.8l0,0C326.3,220.9,325,222.1,323.5,222.1z"/>
	<circle id="c_x5F_camera" class="st5" cx="249.9" cy="123" r="0.9"/>
</g>
<g id="c_x5F_stand_x5F_g">
	<polygon id="c_x5F_stand" class="st6" points="277.3,272 226.7,272 233.7,251.7 234.7,248.8 269.3,248.8 270.3,251.7 	"/>
	<path id="c_x5F_base" class="st6" d="M282,275.3H222c-0.5,0-1-0.4-1-1V273c0-0.5,0.4-1,1-1H282c0.5,0,1,0.4,1,1v1.4
		C283,274.9,282.6,275.3,282,275.3z"/>
	<polygon id="c_x5F_shadow" class="st7" points="270.3,251.7 233.7,251.7 234.7,248.8 269.3,248.8 	"/>
</g>
<g id="c_x5F_bez_x5F_g">
	<path id="c_x5F_bezel" class="st6" d="M332.5,248.8H167.3c-1.9,0-3.5-1.6-3.5-3.5v-15.5H336v15.5
		C336,247.3,334.4,248.8,332.5,248.8z"/>
	<circle id="c_x5F_power" class="st5" cx="249.9" cy="239.3" r="4"/>
</g>
</svg>
